<svg width="48" height="48" viewBox="0 0 48 48" fill="none" xmlns="http://www.w3.org/2000/svg">
<path d="M24 4C13.523 4 5 12.523 5 23c0 3.913 1.153 7.553 3.129 10.6L6.5 42l8.63-1.574C18.24 41.46 21.04 42 24 42c10.477 0 19-8.523 19-19S34.477 4 24 4z" fill="#25D366"/>
<path d="M35.71 28.36c-.2-.33-.73-.53-1.53-.93-.8-.4-4.72-2.32-5.45-2.58-.73-.27-1.27-.4-1.8.4-.53.8-2.06 2.58-2.53 3.11-.47.53-.93.6-1.73.2-.8-.4-3.38-1.25-6.45-3.98-2.38-2.12-3.98-4.74-4.45-5.54-.47-.8-.05-1.24.35-1.63.36-.36.8-.93 1.2-1.4.4-.47.53-.8.8-1.33.27-.53.13-1-.07-1.4-.2-.4-1.8-4.33-2.47-5.92-.65-1.58-1.32-1.37-1.8-1.37-.47 0-1.02-.07-1.56-.07-.53 0-1.4.2-2.13 1-.73.8-2.8 2.73-2.8 6.65 0 3.93 2.87 7.72 3.27 8.25.4.53 5.65 8.63 13.7 12.1 1.92.83 3.42 1.33 4.59 1.7 1.92.61 3.68.52 5.07.32 1.55-.23 4.72-1.93 5.39-3.8.67-1.86.67-3.45.47-3.78z" fill="#fff"/>
</svg>
